<svg id="visual" viewBox="0 0 900 300" width="900" height="300" xmlns="http://www.w3.org/2000/svg" xmlns:xlink="http://www.w3.org/1999/xlink" version="1.1"><rect x="0" y="0" width="900" height="300" fill="#2fa11a"></rect><g transform="translate(459.2912616548925 138.76104668624134)"><path d="M65.9 -133.2C80.1 -105.9 82.7 -77.6 108.4 -55.2C134.2 -32.8 183.1 -16.4 188.8 3.3C194.5 23 157 46 128 62.7C99 79.5 78.5 90 58.6 111.8C38.7 133.6 19.3 166.8 -12.2 188C-43.7 209.1 -87.5 218.2 -115.2 200.9C-142.9 183.6 -154.6 139.8 -166.9 101.9C-179.2 64 -192.1 32 -200.8 -5C-209.4 -42 -213.8 -84 -193 -107.1C-172.2 -130.2 -126.1 -134.4 -89.7 -148.9C-53.3 -163.4 -26.7 -188.2 -0.4 -187.5C25.8 -186.7 51.7 -160.5 65.9 -133.2" fill="#2dca00"></path></g></svg>