<svg id="visual" viewBox="0 0 900 300" width="900" height="300" xmlns="http://www.w3.org/2000/svg" xmlns:xlink="http://www.w3.org/1999/xlink" version="1.1"><rect x="0" y="0" width="900" height="300" fill="#2fa11a"></rect><g transform="translate(463.2807498377614 136.47163840136722)"><path d="M86.5 -155.5C100.8 -141.7 93 -95.5 110.9 -64.1C128.8 -32.8 172.4 -16.4 193.6 12.2C214.7 40.8 213.5 81.7 198.8 118.6C184.1 155.6 156.1 188.6 120.7 187.4C85.3 186.1 42.7 150.6 9 135C-24.7 119.4 -49.3 123.8 -85.1 125.3C-120.9 126.8 -167.8 125.4 -199.3 104C-230.7 82.7 -246.6 41.3 -228.8 10.3C-211.1 -20.8 -159.7 -41.7 -127.3 -61.3C-94.8 -80.9 -81.4 -99.4 -63.4 -110.9C-45.3 -122.5 -22.7 -127.3 6.7 -139C36.2 -150.6 72.3 -169.3 86.5 -155.5" fill="#2dca00"></path></g></svg>