<svg id="visual" viewBox="0 0 900 300" width="900" height="300" xmlns="http://www.w3.org/2000/svg" xmlns:xlink="http://www.w3.org/1999/xlink" version="1.1"><rect x="0" y="0" width="900" height="300" fill="#2fa11a"></rect><path d="M0 139L9.3 153.2C18.7 167.3 37.3 195.7 56.2 198C75 200.3 94 176.7 112.8 165C131.7 153.3 150.3 153.7 169 166.7C187.7 179.7 206.3 205.3 225 206.7C243.7 208 262.3 185 281.2 150.2C300 115.3 319 68.7 337.8 78.5C356.7 88.3 375.3 154.7 394 189.3C412.7 224 431.3 227 450 228.7C468.7 230.3 487.3 230.7 506.2 199.3C525 168 544 105 562.8 75C581.7 45 600.3 48 619 58.5C637.7 69 656.3 87 675 84C693.7 81 712.3 57 731.2 52.8C750 48.7 769 64.3 787.8 91.5C806.7 118.7 825.3 157.3 844 146.3C862.7 135.3 881.3 74.7 890.7 44.3L900 14L900 301L890.7 301C881.3 301 862.7 301 844 301C825.3 301 806.7 301 787.8 301C769 301 750 301 731.2 301C712.3 301 693.7 301 675 301C656.3 301 637.7 301 619 301C600.3 301 581.7 301 562.8 301C544 301 525 301 506.2 301C487.3 301 468.7 301 450 301C431.3 301 412.7 301 394 301C375.3 301 356.7 301 337.8 301C319 301 300 301 281.2 301C262.3 301 243.7 301 225 301C206.3 301 187.7 301 169 301C150.3 301 131.7 301 112.8 301C94 301 75 301 56.2 301C37.3 301 18.7 301 9.3 301L0 301Z" fill="#2fa11a"></path><path d="M0 216L9.3 190.3C18.7 164.7 37.3 113.3 56.2 104.3C75 95.3 94 128.7 112.8 137.8C131.7 147 150.3 132 169 143.8C187.7 155.7 206.3 194.3 225 188.5C243.7 182.7 262.3 132.3 281.2 124.3C300 116.3 319 150.7 337.8 161.5C356.7 172.3 375.3 159.7 394 138.7C412.7 117.7 431.3 88.3 450 109.5C468.7 130.7 487.3 202.3 506.2 217C525 231.7 544 189.3 562.8 163.2C581.7 137 600.3 127 619 139.8C637.7 152.7 656.3 188.3 675 191C693.7 193.7 712.3 163.3 731.2 143C750 122.7 769 112.3 787.8 107.2C806.7 102 825.3 102 844 121.2C862.7 140.3 881.3 178.7 890.7 197.8L900 217L900 301L890.7 301C881.3 301 862.7 301 844 301C825.3 301 806.7 301 787.8 301C769 301 750 301 731.2 301C712.3 301 693.7 301 675 301C656.3 301 637.7 301 619 301C600.3 301 581.7 301 562.8 301C544 301 525 301 506.2 301C487.3 301 468.7 301 450 301C431.3 301 412.7 301 394 301C375.3 301 356.7 301 337.8 301C319 301 300 301 281.2 301C262.3 301 243.7 301 225 301C206.3 301 187.7 301 169 301C150.3 301 131.7 301 112.8 301C94 301 75 301 56.2 301C37.3 301 18.7 301 9.3 301L0 301Z" fill="#669900"></path><path d="M0 61L9.3 81.7C18.7 102.3 37.3 143.7 56.2 170.7C75 197.7 94 210.3 112.8 224C131.7 237.7 150.3 252.3 169 255.8C187.7 259.3 206.3 251.7 225 215.7C243.7 179.7 262.3 115.3 281.2 103.8C300 92.3 319 133.7 337.8 139.3C356.7 145 375.3 115 394 95.3C412.7 75.7 431.3 66.3 450 86C468.7 105.7 487.3 154.3 506.2 159.5C525 164.7 544 126.3 562.8 107C581.7 87.7 600.3 87.3 619 82.3C637.7 77.3 656.3 67.7 675 62.7C693.7 57.7 712.3 57.3 731.2 89.8C750 122.3 769 187.7 787.8 223.3C806.7 259 825.3 265 844 269C862.7 273 881.3 275 890.7 276L900 277L900 301L890.7 301C881.3 301 862.7 301 844 301C825.3 301 806.7 301 787.8 301C769 301 750 301 731.2 301C712.3 301 693.7 301 675 301C656.3 301 637.7 301 619 301C600.3 301 581.7 301 562.8 301C544 301 525 301 506.2 301C487.3 301 468.7 301 450 301C431.3 301 412.7 301 394 301C375.3 301 356.7 301 337.8 301C319 301 300 301 281.2 301C262.3 301 243.7 301 225 301C206.3 301 187.7 301 169 301C150.3 301 131.7 301 112.8 301C94 301 75 301 56.2 301C37.3 301 18.7 301 9.3 301L0 301Z" fill="#8d8e00"></path><path d="M0 243L9.3 248.8C18.7 254.7 37.3 266.3 56.2 264.3C75 262.3 94 246.7 112.8 224.2C131.7 201.7 150.3 172.3 169 172.8C187.7 173.3 206.3 203.7 225 202.8C243.7 202 262.3 170 281.2 159.3C300 148.7 319 159.3 337.8 170.3C356.7 181.3 375.3 192.7 394 186C412.7 179.3 431.3 154.7 450 153.8C468.7 153 487.3 176 506.2 167.3C525 158.7 544 118.3 562.8 120.3C581.7 122.3 600.3 166.7 619 188.2C637.7 209.7 656.3 208.3 675 216.2C693.7 224 712.3 241 731.2 248.3C750 255.7 769 253.3 787.8 232.5C806.7 211.7 825.3 172.3 844 152.3C862.7 132.3 881.3 131.7 890.7 131.3L900 131L900 301L890.7 301C881.3 301 862.7 301 844 301C825.3 301 806.7 301 787.8 301C769 301 750 301 731.2 301C712.3 301 693.7 301 675 301C656.3 301 637.7 301 619 301C600.3 301 581.7 301 562.8 301C544 301 525 301 506.2 301C487.3 301 468.7 301 450 301C431.3 301 412.7 301 394 301C375.3 301 356.7 301 337.8 301C319 301 300 301 281.2 301C262.3 301 243.7 301 225 301C206.3 301 187.7 301 169 301C150.3 301 131.7 301 112.8 301C94 301 75 301 56.2 301C37.3 301 18.7 301 9.3 301L0 301Z" fill="#ae7f00"></path><path d="M0 179L9.3 186.5C18.7 194 37.3 209 56.2 199.3C75 189.7 94 155.3 112.8 143.2C131.7 131 150.3 141 169 164.7C187.7 188.3 206.3 225.7 225 229.3C243.7 233 262.3 203 281.2 198.2C300 193.3 319 213.7 337.8 220.8C356.7 228 375.3 222 394 228.7C412.7 235.3 431.3 254.7 450 237.5C468.7 220.3 487.3 166.7 506.2 148.2C525 129.7 544 146.3 562.8 164.2C581.7 182 600.3 201 619 197.3C637.7 193.7 656.3 167.3 675 148.3C693.7 129.3 712.3 117.7 731.2 119.8C750 122 769 138 787.8 154C806.7 170 825.3 186 844 198C862.7 210 881.3 218 890.7 222L900 226L900 301L890.7 301C881.3 301 862.7 301 844 301C825.3 301 806.7 301 787.8 301C769 301 750 301 731.2 301C712.3 301 693.7 301 675 301C656.3 301 637.7 301 619 301C600.3 301 581.7 301 562.8 301C544 301 525 301 506.2 301C487.3 301 468.7 301 450 301C431.3 301 412.7 301 394 301C375.3 301 356.7 301 337.8 301C319 301 300 301 281.2 301C262.3 301 243.7 301 225 301C206.3 301 187.7 301 169 301C150.3 301 131.7 301 112.8 301C94 301 75 301 56.2 301C37.3 301 18.7 301 9.3 301L0 301Z" fill="#cb6c00"></path><path d="M0 218L9.3 208C18.7 198 37.3 178 56.2 171.2C75 164.3 94 170.7 112.8 182C131.7 193.3 150.3 209.7 169 211C187.7 212.3 206.3 198.7 225 201.3C243.7 204 262.3 223 281.2 229.3C300 235.7 319 229.3 337.8 209.8C356.7 190.3 375.3 157.7 394 145.7C412.7 133.7 431.3 142.3 450 149.3C468.7 156.3 487.3 161.7 506.2 166.7C525 171.7 544 176.3 562.8 173.2C581.7 170 600.3 159 619 166.8C637.7 174.7 656.3 201.3 675 210.3C693.7 219.3 712.3 210.7 731.2 219.5C750 228.3 769 254.7 787.8 260.2C806.7 265.7 825.3 250.3 844 241.5C862.7 232.7 881.3 230.3 890.7 229.2L900 228L900 301L890.7 301C881.3 301 862.7 301 844 301C825.3 301 806.7 301 787.8 301C769 301 750 301 731.2 301C712.3 301 693.7 301 675 301C656.3 301 637.7 301 619 301C600.3 301 581.7 301 562.8 301C544 301 525 301 506.2 301C487.3 301 468.7 301 450 301C431.3 301 412.7 301 394 301C375.3 301 356.7 301 337.8 301C319 301 300 301 281.2 301C262.3 301 243.7 301 225 301C206.3 301 187.7 301 169 301C150.3 301 131.7 301 112.8 301C94 301 75 301 56.2 301C37.3 301 18.7 301 9.3 301L0 301Z" fill="#e35400"></path><path d="M0 166L9.3 164.2C18.7 162.3 37.3 158.7 56.2 167.3C75 176 94 197 112.8 204.7C131.7 212.3 150.3 206.7 169 197.7C187.7 188.7 206.3 176.3 225 189C243.7 201.7 262.3 239.3 281.2 240.3C300 241.3 319 205.7 337.8 184.8C356.7 164 375.3 158 394 159C412.7 160 431.3 168 450 180.7C468.7 193.3 487.3 210.7 506.2 218.5C525 226.3 544 224.7 562.8 230.3C581.7 236 600.3 249 619 244.5C637.7 240 656.3 218 675 204.3C693.7 190.7 712.3 185.3 731.2 195.7C750 206 769 232 787.8 238.8C806.7 245.7 825.3 233.3 844 230.5C862.7 227.7 881.3 234.3 890.7 237.7L900 241L900 301L890.7 301C881.3 301 862.7 301 844 301C825.3 301 806.7 301 787.8 301C769 301 750 301 731.2 301C712.3 301 693.7 301 675 301C656.3 301 637.7 301 619 301C600.3 301 581.7 301 562.8 301C544 301 525 301 506.2 301C487.3 301 468.7 301 450 301C431.3 301 412.7 301 394 301C375.3 301 356.7 301 337.8 301C319 301 300 301 281.2 301C262.3 301 243.7 301 225 301C206.3 301 187.7 301 169 301C150.3 301 131.7 301 112.8 301C94 301 75 301 56.2 301C37.3 301 18.7 301 9.3 301L0 301Z" fill="#f53431"></path><path d="M0 198L9.3 201.7C18.7 205.3 37.3 212.7 56.2 217.3C75 222 94 224 112.8 218.8C131.7 213.7 150.3 201.3 169 209.7C187.7 218 206.3 247 225 253.5C243.7 260 262.3 244 281.2 231.8C300 219.7 319 211.3 337.8 217C356.7 222.7 375.3 242.3 394 246.7C412.7 251 431.3 240 450 238.8C468.7 237.7 487.3 246.3 506.2 253C525 259.7 544 264.3 562.8 258.8C581.7 253.3 600.3 237.7 619 239C637.7 240.3 656.3 258.7 675 256.2C693.7 253.7 712.3 230.3 731.2 232C750 233.7 769 260.3 787.8 259.7C806.7 259 825.3 231 844 213.2C862.7 195.3 881.3 187.7 890.7 183.8L900 180L900 301L890.7 301C881.3 301 862.7 301 844 301C825.3 301 806.7 301 787.8 301C769 301 750 301 731.2 301C712.3 301 693.7 301 675 301C656.3 301 637.7 301 619 301C600.3 301 581.7 301 562.8 301C544 301 525 301 506.2 301C487.3 301 468.7 301 450 301C431.3 301 412.7 301 394 301C375.3 301 356.7 301 337.8 301C319 301 300 301 281.2 301C262.3 301 243.7 301 225 301C206.3 301 187.7 301 169 301C150.3 301 131.7 301 112.8 301C94 301 75 301 56.2 301C37.3 301 18.7 301 9.3 301L0 301Z" fill="#ff0055"></path><path d="M0 263L9.3 262.7C18.7 262.3 37.3 261.7 56.2 266C75 270.3 94 279.7 112.8 274.8C131.7 270 150.3 251 169 240.5C187.7 230 206.3 228 225 223C243.7 218 262.3 210 281.2 210.7C300 211.3 319 220.7 337.8 226.5C356.7 232.3 375.3 234.7 394 243.7C412.7 252.7 431.3 268.3 450 275.8C468.7 283.3 487.3 282.7 506.2 280.7C525 278.7 544 275.3 562.8 272.2C581.7 269 600.3 266 619 254.2C637.7 242.3 656.3 221.7 675 213C693.7 204.3 712.3 207.7 731.2 208.8C750 210 769 209 787.8 208.3C806.7 207.7 825.3 207.3 844 214.3C862.7 221.3 881.3 235.7 890.7 242.8L900 250L900 301L890.7 301C881.3 301 862.7 301 844 301C825.3 301 806.7 301 787.8 301C769 301 750 301 731.2 301C712.3 301 693.7 301 675 301C656.3 301 637.7 301 619 301C600.3 301 581.7 301 562.8 301C544 301 525 301 506.2 301C487.3 301 468.7 301 450 301C431.3 301 412.7 301 394 301C375.3 301 356.7 301 337.8 301C319 301 300 301 281.2 301C262.3 301 243.7 301 225 301C206.3 301 187.7 301 169 301C150.3 301 131.7 301 112.8 301C94 301 75 301 56.2 301C37.3 301 18.7 301 9.3 301L0 301Z" fill="#fe007c"></path><path d="M0 260L9.3 265.2C18.7 270.3 37.3 280.7 56.2 275.7C75 270.7 94 250.3 112.8 242.7C131.7 235 150.3 240 169 250.5C187.7 261 206.3 277 225 283.2C243.7 289.3 262.3 285.7 281.2 276.8C300 268 319 254 337.8 254.7C356.7 255.3 375.3 270.7 394 277.5C412.7 284.3 431.3 282.7 450 279.8C468.7 277 487.3 273 506.2 275.2C525 277.3 544 285.7 562.8 289C581.7 292.3 600.3 290.7 619 289.7C637.7 288.7 656.3 288.3 675 283.7C693.7 279 712.3 270 731.2 267C750 264 769 267 787.8 263.3C806.7 259.7 825.3 249.3 844 252C862.7 254.7 881.3 270.3 890.7 278.2L900 286L900 301L890.7 301C881.3 301 862.7 301 844 301C825.3 301 806.7 301 787.8 301C769 301 750 301 731.2 301C712.3 301 693.7 301 675 301C656.3 301 637.7 301 619 301C600.3 301 581.7 301 562.8 301C544 301 525 301 506.2 301C487.3 301 468.7 301 450 301C431.3 301 412.7 301 394 301C375.3 301 356.7 301 337.8 301C319 301 300 301 281.2 301C262.3 301 243.7 301 225 301C206.3 301 187.7 301 169 301C150.3 301 131.7 301 112.8 301C94 301 75 301 56.2 301C37.3 301 18.7 301 9.3 301L0 301Z" fill="#f100a4"></path><path d="M0 294L9.3 292.5C18.7 291 37.3 288 56.2 284.2C75 280.3 94 275.7 112.8 272.5C131.7 269.3 150.3 267.7 169 272C187.7 276.3 206.3 286.7 225 287.2C243.7 287.7 262.3 278.3 281.2 273.7C300 269 319 269 337.8 271.5C356.7 274 375.3 279 394 279.3C412.7 279.7 431.3 275.3 450 276.7C468.7 278 487.3 285 506.2 284.8C525 284.7 544 277.3 562.8 273.7C581.7 270 600.3 270 619 271.3C637.7 272.7 656.3 275.3 675 274.5C693.7 273.7 712.3 269.3 731.2 265.2C750 261 769 257 787.8 257.2C806.7 257.3 825.3 261.7 844 263.3C862.7 265 881.3 264 890.7 263.5L900 263L900 301L890.7 301C881.3 301 862.7 301 844 301C825.3 301 806.7 301 787.8 301C769 301 750 301 731.2 301C712.3 301 693.7 301 675 301C656.3 301 637.7 301 619 301C600.3 301 581.7 301 562.8 301C544 301 525 301 506.2 301C487.3 301 468.7 301 450 301C431.3 301 412.7 301 394 301C375.3 301 356.7 301 337.8 301C319 301 300 301 281.2 301C262.3 301 243.7 301 225 301C206.3 301 187.7 301 169 301C150.3 301 131.7 301 112.8 301C94 301 75 301 56.2 301C37.3 301 18.7 301 9.3 301L0 301Z" fill="#d51ecd"></path></svg>