<svg id="visual" viewBox="0 0 960 300" width="960" height="300" xmlns="http://www.w3.org/2000/svg" xmlns:xlink="http://www.w3.org/1999/xlink" version="1.1"><path d="M0 290L16 289.8C32 289.7 64 289.3 96 286.5C128 283.7 160 278.3 192 274.3C224 270.3 256 267.7 288 268.7C320 269.7 352 274.3 384 273.2C416 272 448 265 480 266.8C512 268.7 544 279.3 576 285C608 290.7 640 291.3 672 291.7C704 292 736 292 768 289.3C800 286.7 832 281.3 864 279C896 276.7 928 277.3 944 277.7L960 278L960 0L944 0C928 0 896 0 864 0C832 0 800 0 768 0C736 0 704 0 672 0C640 0 608 0 576 0C544 0 512 0 480 0C448 0 416 0 384 0C352 0 320 0 288 0C256 0 224 0 192 0C160 0 128 0 96 0C64 0 32 0 16 0L0 0Z" fill="#f7770f"></path><path d="M0 237L16 237.7C32 238.3 64 239.7 96 243.3C128 247 160 253 192 257.7C224 262.3 256 265.7 288 266.7C320 267.7 352 266.3 384 263.8C416 261.3 448 257.7 480 253.8C512 250 544 246 576 243.2C608 240.3 640 238.7 672 243.2C704 247.7 736 258.3 768 259.8C800 261.3 832 253.7 864 250.7C896 247.7 928 249.3 944 250.2L960 251L960 0L944 0C928 0 896 0 864 0C832 0 800 0 768 0C736 0 704 0 672 0C640 0 608 0 576 0C544 0 512 0 480 0C448 0 416 0 384 0C352 0 320 0 288 0C256 0 224 0 192 0C160 0 128 0 96 0C64 0 32 0 16 0L0 0Z" fill="#e5670c"></path><path d="M0 237L16 233.8C32 230.7 64 224.3 96 224C128 223.7 160 229.3 192 234.2C224 239 256 243 288 239.8C320 236.7 352 226.3 384 223.3C416 220.3 448 224.7 480 226.5C512 228.3 544 227.7 576 229.3C608 231 640 235 672 234.5C704 234 736 229 768 226.2C800 223.3 832 222.7 864 224.7C896 226.7 928 231.3 944 233.7L960 236L960 0L944 0C928 0 896 0 864 0C832 0 800 0 768 0C736 0 704 0 672 0C640 0 608 0 576 0C544 0 512 0 480 0C448 0 416 0 384 0C352 0 320 0 288 0C256 0 224 0 192 0C160 0 128 0 96 0C64 0 32 0 16 0L0 0Z" fill="#d35709"></path><path d="M0 195L16 198.2C32 201.3 64 207.7 96 208.3C128 209 160 204 192 203.8C224 203.7 256 208.3 288 210.5C320 212.7 352 212.3 384 213.2C416 214 448 216 480 212.2C512 208.3 544 198.7 576 198.7C608 198.7 640 208.3 672 211.2C704 214 736 210 768 210.3C800 210.7 832 215.3 864 212.5C896 209.7 928 199.3 944 194.2L960 189L960 0L944 0C928 0 896 0 864 0C832 0 800 0 768 0C736 0 704 0 672 0C640 0 608 0 576 0C544 0 512 0 480 0C448 0 416 0 384 0C352 0 320 0 288 0C256 0 224 0 192 0C160 0 128 0 96 0C64 0 32 0 16 0L0 0Z" fill="#c04806"></path><path d="M0 191L16 188.7C32 186.3 64 181.7 96 177.7C128 173.7 160 170.3 192 171.5C224 172.7 256 178.3 288 180.2C320 182 352 180 384 181.7C416 183.3 448 188.7 480 192C512 195.3 544 196.7 576 197C608 197.3 640 196.7 672 197C704 197.3 736 198.7 768 195.3C800 192 832 184 864 180.7C896 177.3 928 178.7 944 179.3L960 180L960 0L944 0C928 0 896 0 864 0C832 0 800 0 768 0C736 0 704 0 672 0C640 0 608 0 576 0C544 0 512 0 480 0C448 0 416 0 384 0C352 0 320 0 288 0C256 0 224 0 192 0C160 0 128 0 96 0C64 0 32 0 16 0L0 0Z" fill="#ae3903"></path><path d="M0 152L16 156.2C32 160.3 64 168.7 96 167.5C128 166.3 160 155.7 192 152C224 148.3 256 151.7 288 154.2C320 156.7 352 158.3 384 158.5C416 158.7 448 157.3 480 158.2C512 159 544 162 576 165C608 168 640 171 672 170.8C704 170.7 736 167.3 768 166C800 164.7 832 165.3 864 162.7C896 160 928 154 944 151L960 148L960 0L944 0C928 0 896 0 864 0C832 0 800 0 768 0C736 0 704 0 672 0C640 0 608 0 576 0C544 0 512 0 480 0C448 0 416 0 384 0C352 0 320 0 288 0C256 0 224 0 192 0C160 0 128 0 96 0C64 0 32 0 16 0L0 0Z" fill="#9b2a01"></path><path d="M0 138L16 139.5C32 141 64 144 96 141.5C128 139 160 131 192 128C224 125 256 127 288 128.5C320 130 352 131 384 134.8C416 138.7 448 145.3 480 144.8C512 144.3 544 136.7 576 134.8C608 133 640 137 672 136.8C704 136.7 736 132.3 768 129.5C800 126.7 832 125.3 864 130C896 134.7 928 145.3 944 150.7L960 156L960 0L944 0C928 0 896 0 864 0C832 0 800 0 768 0C736 0 704 0 672 0C640 0 608 0 576 0C544 0 512 0 480 0C448 0 416 0 384 0C352 0 320 0 288 0C256 0 224 0 192 0C160 0 128 0 96 0C64 0 32 0 16 0L0 0Z" fill="#891900"></path><path d="M0 97L16 101.7C32 106.3 64 115.7 96 116.3C128 117 160 109 192 106.2C224 103.3 256 105.7 288 107.2C320 108.7 352 109.3 384 109.7C416 110 448 110 480 107.8C512 105.7 544 101.3 576 100.8C608 100.3 640 103.7 672 106.8C704 110 736 113 768 115.2C800 117.3 832 118.7 864 117.2C896 115.7 928 111.3 944 109.2L960 107L960 0L944 0C928 0 896 0 864 0C832 0 800 0 768 0C736 0 704 0 672 0C640 0 608 0 576 0C544 0 512 0 480 0C448 0 416 0 384 0C352 0 320 0 288 0C256 0 224 0 192 0C160 0 128 0 96 0C64 0 32 0 16 0L0 0Z" fill="#780100"></path><path d="M0 79L16 78.2C32 77.3 64 75.7 96 78C128 80.3 160 86.7 192 89.2C224 91.7 256 90.3 288 93C320 95.7 352 102.3 384 105.7C416 109 448 109 480 105.7C512 102.3 544 95.7 576 90.3C608 85 640 81 672 82.7C704 84.3 736 91.7 768 94.7C800 97.7 832 96.3 864 94.8C896 93.3 928 91.7 944 90.8L960 90L960 0L944 0C928 0 896 0 864 0C832 0 800 0 768 0C736 0 704 0 672 0C640 0 608 0 576 0C544 0 512 0 480 0C448 0 416 0 384 0C352 0 320 0 288 0C256 0 224 0 192 0C160 0 128 0 96 0C64 0 32 0 16 0L0 0Z" fill="#680000"></path><path d="M0 55L16 55.5C32 56 64 57 96 62.2C128 67.3 160 76.7 192 79.3C224 82 256 78 288 77.7C320 77.3 352 80.7 384 81.3C416 82 448 80 480 76.7C512 73.3 544 68.7 576 68C608 67.3 640 70.7 672 69.5C704 68.3 736 62.7 768 63.3C800 64 832 71 864 74.7C896 78.3 928 78.7 944 78.8L960 79L960 0L944 0C928 0 896 0 864 0C832 0 800 0 768 0C736 0 704 0 672 0C640 0 608 0 576 0C544 0 512 0 480 0C448 0 416 0 384 0C352 0 320 0 288 0C256 0 224 0 192 0C160 0 128 0 96 0C64 0 32 0 16 0L0 0Z" fill="#580000"></path><path d="M0 29L16 29.3C32 29.7 64 30.3 96 30.3C128 30.3 160 29.7 192 29.5C224 29.3 256 29.7 288 35.3C320 41 352 52 384 57.3C416 62.7 448 62.3 480 61.8C512 61.3 544 60.7 576 57.2C608 53.7 640 47.3 672 42C704 36.7 736 32.3 768 34.2C800 36 832 44 864 48.3C896 52.7 928 53.3 944 53.7L960 54L960 0L944 0C928 0 896 0 864 0C832 0 800 0 768 0C736 0 704 0 672 0C640 0 608 0 576 0C544 0 512 0 480 0C448 0 416 0 384 0C352 0 320 0 288 0C256 0 224 0 192 0C160 0 128 0 96 0C64 0 32 0 16 0L0 0Z" fill="#4a0000"></path><path d="M0 8L16 9C32 10 64 12 96 11.8C128 11.7 160 9.3 192 8.8C224 8.3 256 9.7 288 11.2C320 12.7 352 14.3 384 14.7C416 15 448 14 480 12.2C512 10.3 544 7.7 576 10.3C608 13 640 21 672 21.3C704 21.7 736 14.3 768 13C800 11.7 832 16.3 864 20.5C896 24.7 928 28.3 944 30.2L960 32L960 0L944 0C928 0 896 0 864 0C832 0 800 0 768 0C736 0 704 0 672 0C640 0 608 0 576 0C544 0 512 0 480 0C448 0 416 0 384 0C352 0 320 0 288 0C256 0 224 0 192 0C160 0 128 0 96 0C64 0 32 0 16 0L0 0Z" fill="#000000"></path></svg>