<svg id="visual" viewBox="0 0 900 300" width="900" height="300" xmlns="http://www.w3.org/2000/svg" xmlns:xlink="http://www.w3.org/1999/xlink" version="1.1"><rect x="0" y="0" width="900" height="300" fill="#2fa11a"></rect><path d="M0 144L11.5 144.3C23 144.7 46 145.3 69 147C92 148.7 115 151.3 138.2 166.2C161.3 181 184.7 208 207.8 207.3C231 206.7 254 178.3 277 169.7C300 161 323 172 346 184.8C369 197.7 392 212.3 415.2 201C438.3 189.7 461.7 152.3 484.8 121C508 89.7 531 64.3 554 75.2C577 86 600 133 623 138.5C646 144 669 108 692.2 84.8C715.3 61.7 738.7 51.3 761.8 69.3C785 87.3 808 133.7 831 143.3C854 153 877 126 888.5 112.5L900 99L900 301L888.5 301C877 301 854 301 831 301C808 301 785 301 761.8 301C738.7 301 715.3 301 692.2 301C669 301 646 301 623 301C600 301 577 301 554 301C531 301 508 301 484.8 301C461.7 301 438.3 301 415.2 301C392 301 369 301 346 301C323 301 300 301 277 301C254 301 231 301 207.8 301C184.7 301 161.3 301 138.2 301C115 301 92 301 69 301C46 301 23 301 11.5 301L0 301Z" fill="#2fa11a"></path><path d="M0 176L11.5 183.8C23 191.7 46 207.3 69 217.7C92 228 115 233 138.2 233.5C161.3 234 184.7 230 207.8 228.7C231 227.3 254 228.7 277 199.5C300 170.3 323 110.7 346 92.8C369 75 392 99 415.2 111.5C438.3 124 461.7 125 484.8 116.5C508 108 531 90 554 98.5C577 107 600 142 623 158.7C646 175.3 669 173.7 692.2 185.8C715.3 198 738.7 224 761.8 220.8C785 217.7 808 185.3 831 154C854 122.7 877 92.3 888.5 77.2L900 62L900 301L888.5 301C877 301 854 301 831 301C808 301 785 301 761.8 301C738.7 301 715.3 301 692.2 301C669 301 646 301 623 301C600 301 577 301 554 301C531 301 508 301 484.8 301C461.7 301 438.3 301 415.2 301C392 301 369 301 346 301C323 301 300 301 277 301C254 301 231 301 207.8 301C184.7 301 161.3 301 138.2 301C115 301 92 301 69 301C46 301 23 301 11.5 301L0 301Z" fill="#43aa18"></path><path d="M0 82L11.5 84.3C23 86.7 46 91.3 69 90.7C92 90 115 84 138.2 93.5C161.3 103 184.7 128 207.8 151C231 174 254 195 277 189C300 183 323 150 346 155.2C369 160.3 392 203.7 415.2 218.8C438.3 234 461.7 221 484.8 199.3C508 177.7 531 147.3 554 135.2C577 123 600 129 623 140.5C646 152 669 169 692.2 165.8C715.3 162.7 738.7 139.3 761.8 150.5C785 161.7 808 207.3 831 208.5C854 209.7 877 166.3 888.5 144.7L900 123L900 301L888.5 301C877 301 854 301 831 301C808 301 785 301 761.8 301C738.7 301 715.3 301 692.2 301C669 301 646 301 623 301C600 301 577 301 554 301C531 301 508 301 484.8 301C461.7 301 438.3 301 415.2 301C392 301 369 301 346 301C323 301 300 301 277 301C254 301 231 301 207.8 301C184.7 301 161.3 301 138.2 301C115 301 92 301 69 301C46 301 23 301 11.5 301L0 301Z" fill="#56b316"></path><path d="M0 198L11.5 194.5C23 191 46 184 69 166.8C92 149.7 115 122.3 138.2 113C161.3 103.7 184.7 112.3 207.8 113C231 113.7 254 106.3 277 105C300 103.7 323 108.3 346 120.2C369 132 392 151 415.2 168.5C438.3 186 461.7 202 484.8 215.8C508 229.7 531 241.3 554 225.2C577 209 600 165 623 157.5C646 150 669 179 692.2 187.5C715.3 196 738.7 184 761.8 185.3C785 186.7 808 201.3 831 196.2C854 191 877 166 888.5 153.5L900 141L900 301L888.5 301C877 301 854 301 831 301C808 301 785 301 761.8 301C738.7 301 715.3 301 692.2 301C669 301 646 301 623 301C600 301 577 301 554 301C531 301 508 301 484.8 301C461.7 301 438.3 301 415.2 301C392 301 369 301 346 301C323 301 300 301 277 301C254 301 231 301 207.8 301C184.7 301 161.3 301 138.2 301C115 301 92 301 69 301C46 301 23 301 11.5 301L0 301Z" fill="#67bb13"></path><path d="M0 218L11.5 224.5C23 231 46 244 69 237.3C92 230.7 115 204.3 138.2 195.8C161.3 187.3 184.7 196.7 207.8 206.2C231 215.7 254 225.3 277 212.8C300 200.3 323 165.7 346 146.5C369 127.3 392 123.7 415.2 139.3C438.3 155 461.7 190 484.8 195.5C508 201 531 177 554 159.2C577 141.3 600 129.7 623 126C646 122.3 669 126.7 692.2 145.8C715.3 165 738.7 199 761.8 214.5C785 230 808 227 831 225.5C854 224 877 224 888.5 224L900 224L900 301L888.5 301C877 301 854 301 831 301C808 301 785 301 761.8 301C738.7 301 715.3 301 692.2 301C669 301 646 301 623 301C600 301 577 301 554 301C531 301 508 301 484.8 301C461.7 301 438.3 301 415.2 301C392 301 369 301 346 301C323 301 300 301 277 301C254 301 231 301 207.8 301C184.7 301 161.3 301 138.2 301C115 301 92 301 69 301C46 301 23 301 11.5 301L0 301Z" fill="#78c410"></path><path d="M0 161L11.5 178.5C23 196 46 231 69 228.8C92 226.7 115 187.3 138.2 166.5C161.3 145.7 184.7 143.3 207.8 159.3C231 175.3 254 209.7 277 229.7C300 249.7 323 255.3 346 250C369 244.7 392 228.3 415.2 208C438.3 187.7 461.7 163.3 484.8 160.7C508 158 531 177 554 183.2C577 189.3 600 182.7 623 177.7C646 172.7 669 169.3 692.2 183.8C715.3 198.3 738.7 230.7 761.8 245.5C785 260.3 808 257.7 831 242.5C854 227.3 877 199.7 888.5 185.8L900 172L900 301L888.5 301C877 301 854 301 831 301C808 301 785 301 761.8 301C738.7 301 715.3 301 692.2 301C669 301 646 301 623 301C600 301 577 301 554 301C531 301 508 301 484.8 301C461.7 301 438.3 301 415.2 301C392 301 369 301 346 301C323 301 300 301 277 301C254 301 231 301 207.8 301C184.7 301 161.3 301 138.2 301C115 301 92 301 69 301C46 301 23 301 11.5 301L0 301Z" fill="#89cd0c"></path><path d="M0 214L11.5 217C23 220 46 226 69 227.2C92 228.3 115 224.7 138.2 215.7C161.3 206.7 184.7 192.3 207.8 197C231 201.7 254 225.3 277 227.7C300 230 323 211 346 207C369 203 392 214 415.2 216.3C438.3 218.7 461.7 212.3 484.8 217.3C508 222.3 531 238.7 554 244.8C577 251 600 247 623 247.5C646 248 669 253 692.2 242.2C715.3 231.3 738.7 204.7 761.8 204.5C785 204.3 808 230.7 831 228.2C854 225.7 877 194.3 888.5 178.7L900 163L900 301L888.5 301C877 301 854 301 831 301C808 301 785 301 761.8 301C738.7 301 715.3 301 692.2 301C669 301 646 301 623 301C600 301 577 301 554 301C531 301 508 301 484.8 301C461.7 301 438.3 301 415.2 301C392 301 369 301 346 301C323 301 300 301 277 301C254 301 231 301 207.8 301C184.7 301 161.3 301 138.2 301C115 301 92 301 69 301C46 301 23 301 11.5 301L0 301Z" fill="#99d508"></path><path d="M0 238L11.5 227.8C23 217.7 46 197.3 69 194.8C92 192.3 115 207.7 138.2 216C161.3 224.3 184.7 225.7 207.8 225C231 224.3 254 221.7 277 215.5C300 209.3 323 199.7 346 204.7C369 209.7 392 229.3 415.2 235.5C438.3 241.7 461.7 234.3 484.8 236.3C508 238.3 531 249.7 554 245C577 240.3 600 219.7 623 216.3C646 213 669 227 692.2 224C715.3 221 738.7 201 761.8 203.3C785 205.7 808 230.3 831 239C854 247.7 877 240.3 888.5 236.7L900 233L900 301L888.5 301C877 301 854 301 831 301C808 301 785 301 761.8 301C738.7 301 715.3 301 692.2 301C669 301 646 301 623 301C600 301 577 301 554 301C531 301 508 301 484.8 301C461.7 301 438.3 301 415.2 301C392 301 369 301 346 301C323 301 300 301 277 301C254 301 231 301 207.8 301C184.7 301 161.3 301 138.2 301C115 301 92 301 69 301C46 301 23 301 11.5 301L0 301Z" fill="#abde04"></path><path d="M0 230L11.5 225.7C23 221.3 46 212.7 69 210.2C92 207.7 115 211.3 138.2 224C161.3 236.7 184.7 258.3 207.8 263.8C231 269.3 254 258.7 277 246C300 233.3 323 218.7 346 211.7C369 204.7 392 205.3 415.2 210.5C438.3 215.7 461.7 225.3 484.8 225.3C508 225.3 531 215.7 554 221.5C577 227.3 600 248.7 623 257.7C646 266.7 669 263.3 692.2 257.2C715.3 251 738.7 242 761.8 237.8C785 233.7 808 234.3 831 228.7C854 223 877 211 888.5 205L900 199L900 301L888.5 301C877 301 854 301 831 301C808 301 785 301 761.8 301C738.7 301 715.3 301 692.2 301C669 301 646 301 623 301C600 301 577 301 554 301C531 301 508 301 484.8 301C461.7 301 438.3 301 415.2 301C392 301 369 301 346 301C323 301 300 301 277 301C254 301 231 301 207.8 301C184.7 301 161.3 301 138.2 301C115 301 92 301 69 301C46 301 23 301 11.5 301L0 301Z" fill="#bce600"></path><path d="M0 238L11.5 238C23 238 46 238 69 239C92 240 115 242 138.2 241.2C161.3 240.3 184.7 236.7 207.8 236.8C231 237 254 241 277 245.2C300 249.3 323 253.7 346 251.8C369 250 392 242 415.2 243.3C438.3 244.7 461.7 255.3 484.8 262.3C508 269.3 531 272.7 554 264.8C577 257 600 238 623 237.2C646 236.3 669 253.7 692.2 255C715.3 256.3 738.7 241.7 761.8 242.7C785 243.7 808 260.3 831 269.3C854 278.3 877 279.7 888.5 280.3L900 281L900 301L888.5 301C877 301 854 301 831 301C808 301 785 301 761.8 301C738.7 301 715.3 301 692.2 301C669 301 646 301 623 301C600 301 577 301 554 301C531 301 508 301 484.8 301C461.7 301 438.3 301 415.2 301C392 301 369 301 346 301C323 301 300 301 277 301C254 301 231 301 207.8 301C184.7 301 161.3 301 138.2 301C115 301 92 301 69 301C46 301 23 301 11.5 301L0 301Z" fill="#ceef00"></path><path d="M0 281L11.5 274.2C23 267.3 46 253.7 69 251C92 248.3 115 256.7 138.2 263.3C161.3 270 184.7 275 207.8 278.5C231 282 254 284 277 282.2C300 280.3 323 274.7 346 267.3C369 260 392 251 415.2 251.2C438.3 251.3 461.7 260.7 484.8 265.3C508 270 531 270 554 270.2C577 270.3 600 270.7 623 269.7C646 268.7 669 266.3 692.2 264.5C715.3 262.7 738.7 261.3 761.8 261.5C785 261.7 808 263.3 831 265.8C854 268.3 877 271.7 888.5 273.3L900 275L900 301L888.5 301C877 301 854 301 831 301C808 301 785 301 761.8 301C738.7 301 715.3 301 692.2 301C669 301 646 301 623 301C600 301 577 301 554 301C531 301 508 301 484.8 301C461.7 301 438.3 301 415.2 301C392 301 369 301 346 301C323 301 300 301 277 301C254 301 231 301 207.8 301C184.7 301 161.3 301 138.2 301C115 301 92 301 69 301C46 301 23 301 11.5 301L0 301Z" fill="#e0f700"></path><path d="M0 263L11.5 267.2C23 271.3 46 279.7 69 284C92 288.3 115 288.7 138.2 286.7C161.3 284.7 184.7 280.3 207.8 276.8C231 273.3 254 270.7 277 268.5C300 266.3 323 264.7 346 267C369 269.3 392 275.7 415.2 280C438.3 284.3 461.7 286.7 484.8 287C508 287.3 531 285.7 554 283.2C577 280.7 600 277.3 623 277C646 276.7 669 279.3 692.2 278C715.3 276.7 738.7 271.3 761.8 267.5C785 263.7 808 261.3 831 265.8C854 270.3 877 281.7 888.5 287.3L900 293L900 301L888.5 301C877 301 854 301 831 301C808 301 785 301 761.8 301C738.7 301 715.3 301 692.2 301C669 301 646 301 623 301C600 301 577 301 554 301C531 301 508 301 484.8 301C461.7 301 438.3 301 415.2 301C392 301 369 301 346 301C323 301 300 301 277 301C254 301 231 301 207.8 301C184.7 301 161.3 301 138.2 301C115 301 92 301 69 301C46 301 23 301 11.5 301L0 301Z" fill="#f2ff00"></path></svg>